<svg aria-hidden="true" style="position: absolute; width: 0; height: 0; overflow: hidden;" version="1.1" xmlns="http://www.w3.org/2000/svg" xmlns:xlink="http://www.w3.org/1999/xlink">
<defs>
<symbol id="icon-behance1" viewBox="0 0 54 54">
  <path d="m22.153504,25.623986c0,0 4.701,-0.35 4.701,-5.863c0,-5.514 -3.846,-8.206 -8.719,-8.206l-8.97,0l-0.263,0l-6.802,0l0,30.815l6.802,0l0.263,0l8.97,0c0,0 9.788,0.309 9.788,-9.096c-0.001,0 0.427,-7.65 -5.77,-7.65zm-12.988,-8.592l7.815,0l1.154,0c0,0 2.18,0 2.18,3.205c0,3.207 -1.283,3.672 -2.736,3.672l-8.414,0l0,-6.877l0.001,0zm8.516,19.861c-0.237,0.006 -0.438,0 -0.573,0l-7.943,0l0,-8.234l8.97,0c0,0 3.249,-0.043 3.249,4.23c-0.001,3.606 -2.427,3.977 -3.703,4.004z"/>
  <path d="m40.979504,19.394986c-11.85,0 -11.84,11.84 -11.84,11.84s-0.812,11.779 11.84,11.779c0,0 10.545,0.602 10.545,-8.195l-5.424,0c0,0 0.18,3.314 -4.941,3.314c0,0 -5.422,0.361 -5.422,-5.363l15.967,0c-0.001,0 1.747,-13.375 -10.725,-13.375zm-5.303,9.264c0,0 0.662,-4.75 5.422,-4.75c4.762,0 4.699,4.75 4.699,4.75l-10.121,0z"/>
  <rect y="13.369986" x="34.350504" width="12.711" height="3.795"/>
</symbol>
<symbol id="icon-dribbble1" viewBox="0 0 53 53">
  <path stroke="null" fill-rule="evenodd" d="m51.795114,21.432279c-0.338064,-1.656931 -0.846204,-3.288821 -1.50355,-4.847672c-0.645869,-1.530679 -1.447206,-3.00397 -2.377926,-4.381268c-0.923416,-1.365821 -1.982474,-2.649212 -3.149004,-3.814698c-1.165486,-1.167573 -2.449921,-2.227675 -3.814698,-3.149004c-1.377298,-0.93385 -2.852676,-1.732057 -4.381268,-2.380013c-1.558851,-0.656303 -3.189697,-1.165486 -4.847672,-1.501464c-1.697624,-0.348498 -3.446375,-0.525877 -5.19304,-0.525877c-1.748751,0 -3.495415,0.177379 -5.195126,0.525877c-1.656931,0.335977 -3.288821,0.846204 -4.846628,1.501464c-1.528592,0.647956 -3.00397,1.447206 -4.383355,2.380013c-1.365821,0.921329 -2.649212,1.980388 -3.814698,3.149004c-1.16653,1.165486 -2.224545,2.449921 -3.146917,3.814698c-0.931763,1.377298 -1.732057,2.85059 -2.377926,4.381268c-0.660477,1.558851 -1.16653,3.19074 -1.505637,4.847672c-0.347455,1.695537 -0.523791,3.444288 -0.523791,5.191996c0,1.750838 0.176336,3.499589 0.523791,5.19617c0.339107,1.656931 0.846204,3.288821 1.504594,4.846628c0.645869,1.528592 1.447206,3.006057 2.377926,4.383355c0.922372,1.365821 1.980388,2.647125 3.146917,3.814698c1.165486,1.165486 2.449921,2.223502 3.814698,3.146917c1.379385,0.931763 2.854763,1.732057 4.383355,2.377926c1.556764,0.660477 3.189697,1.163399 4.846628,1.50355c1.699711,0.350585 3.446375,0.525877 5.195126,0.525877c1.746664,0 3.495415,-0.175292 5.19304,-0.525877c1.659018,-0.340151 3.288821,-0.844117 4.847672,-1.50355c1.528592,-0.645869 3.00397,-1.447206 4.381268,-2.377926c1.365821,-0.923416 2.649212,-1.980388 3.814698,-3.146917c1.165486,-1.167573 2.225588,-2.449921 3.149004,-3.814698c0.931763,-1.377298 1.732057,-2.854763 2.377926,-4.383355c0.65839,-1.556764 1.165486,-3.189697 1.50355,-4.846628c0.348498,-1.697624 0.523791,-3.446375 0.523791,-5.19617c0.001043,-1.747708 -0.174249,-3.496459 -0.522747,-5.191996zm-3.249171,4.973924c-0.318239,-0.068865 -7.772343,-1.673626 -15.341222,-0.722038c-0.154424,-0.37667 -0.311979,-0.75647 -0.47475,-1.137314c-0.458056,-1.07784 -0.951588,-2.146289 -1.464944,-3.194914c8.699932,-3.549673 12.231867,-8.657153 12.27256,-8.71767c3.08953,3.750007 4.958273,8.543421 5.008356,13.771937zm-7.470798,-16.312634c-0.055301,0.085559 -3.191784,4.860192 -11.505655,7.976851c-3.765658,-6.918836 -7.902769,-12.414463 -8.233529,-12.850608c1.665278,-0.403799 3.401509,-0.621871 5.190953,-0.621871c5.578057,0 10.666756,2.078468 14.548232,5.495628zm-19.824744,-4.856019c0,0.002087 -0.004174,0.004174 -0.004174,0.004174s-0.023998,0.00626 -0.064691,0.014608c0.021912,-0.00626 0.046953,-0.010434 0.068865,-0.018781zm-4.122503,1.464944c0.293198,0.393365 4.367704,5.916121 8.180315,12.69201c-10.577023,2.809897 -19.755879,2.700339 -20.338101,2.689905c1.431555,-6.822842 6.015245,-12.480198 12.157785,-15.381915zm-12.628362,19.921781c0,-0.234767 0.010434,-0.464316 0.018781,-0.695953c0.388148,0.008347 11.272975,0.255635 22.613772,-3.13857c0.631262,1.235395 1.235395,2.490614 1.787357,3.74479c-0.291111,0.081386 -0.581178,0.169032 -0.868115,0.262939c-11.887543,3.841827 -17.917395,14.538841 -17.917395,14.538841s0.008347,0.00626 0.008347,0.010434c-3.506893,-3.903388 -5.642748,-9.063038 -5.642748,-14.722481zm22.027377,22.029464c-5.330769,0 -10.220177,-1.894828 -14.030702,-5.048006c0.289024,0.234767 0.493532,0.385017 0.493532,0.385017s4.22267,-9.209115 17.28509,-13.760459c0.04904,-0.018781 0.09808,-0.032346 0.14712,-0.046953c3.099964,8.054063 4.379182,14.799693 4.705768,16.72478c-2.643995,1.124793 -5.549885,1.745621 -8.600809,1.745621zm12.309079,-3.757311c-0.224333,-1.330345 -1.398166,-7.795298 -4.287362,-15.734586c7.109779,-1.137314 13.273188,0.812815 13.72707,0.962022c-0.980803,6.137323 -4.493956,11.431573 -9.439708,14.772564z" clip-rule="evenodd"/>
</symbol>
<symbol id="icon-facebook1" viewBox="0 0 56.693 56.693">
  <path d="M40.43,21.739h-7.645v-5.014c0-1.883,1.248-2.322,2.127-2.322c0.877,0,5.395,0,5.395,0V6.125l-7.43-0.029  c-8.248,0-10.125,6.174-10.125,10.125v5.518h-4.77v8.53h4.77c0,10.947,0,24.137,0,24.137h10.033c0,0,0-13.32,0-24.137h6.77  L40.43,21.739z"/>
</symbol>
<symbol id="icon-facebook2" viewBox="0 0 56.693 56.693">
  <path d="M28.347,5.157c-13.6,0-24.625,11.027-24.625,24.625c0,13.6,11.025,24.623,24.625,24.623c13.6,0,24.625-11.023,24.625-24.623  C52.972,16.184,41.946,5.157,28.347,5.157z M34.864,29.679h-4.264c0,6.814,0,15.207,0,15.207h-6.32c0,0,0-8.307,0-15.207h-3.006  V24.31h3.006v-3.479c0-2.49,1.182-6.377,6.379-6.377l4.68,0.018v5.215c0,0-2.846,0-3.398,0c-0.555,0-1.34,0.277-1.34,1.461v3.163  h4.818L34.864,29.679z"/>
</symbol>
<symbol id="icon-facebook3" viewBox="0 0 500 500">
  <path d="M 50,0 C 22.3,0 0,22.299999 0,49.999999 L 0,450 c 0,27.7 22.3,50 50,50 l 400,0 c 27.7,0 50,-22.3 50,-50 L 500,49.999999 C 500,22.299999 477.7,0 450,0 L 50,0 z m 237.875,90.031251 48.9375,0 0,56.062499 -29.34375,0 c -23.3813,0 -26.6875,7.62535 -26.6875,22.6875 l 0,33.34375 56.03125,0 -6.65625,56.0625 -49.375,0 0,168.125 -72.6875,0 0,-168.125 -39.40625,0 0,-56.0625 39.40625,0 0,-37.375 c 0,-47.20056 19.79545,-74.718749 79.78125,-74.718749 z"/>
</symbol>
<symbol id="icon-flickr1" viewBox="0 0 56.693 56.693">
  <g><circle cx="14.811" cy="28.347" r="10.789"/><circle cx="41.882" cy="28.347" r="10.789"/></g>
</symbol>
<symbol id="icon-google-plus1" viewBox="0 0 51 51">
  <path d="m16.474567,22.947387c-0.0075,1.7935 0,3.5869 0.0076,5.3803c3.0067,0.098 6.0208,0.0527 9.0275,0.098c-1.3262,6.6689 -10.3989,8.8315 -15.199,4.4761c-4.9358,-3.8205 -4.7022,-12.1999 0.4295,-15.7491c3.5869,-2.8635 8.6884,-2.1552 12.2752,0.324c1.4092,-1.3036 2.7278,-2.6977 4.0013,-4.1445c-2.984,-2.3812 -6.6462,-4.0767 -10.5421,-3.8958c-8.1307,-0.2713 -15.6059,6.8497 -15.7415,14.9805c-0.52,6.6462 3.8506,13.1644 10.0222,15.5155c6.1489,2.3661 14.031,0.7535 17.957,-4.77c2.5922,-3.4889 3.1498,-7.98 2.8484,-12.1999c-5.0338,-0.0377 -10.0599,-0.0302 -15.0861,-0.0151z"/>
  <path d="m45.877867,22.924787c-0.0151,-1.4996 -0.0226,-3.0067 -0.0301,-4.5062c-1.4996,0 -2.9916,0 -4.4836,0c-0.0151,1.4996 -0.0301,2.9991 -0.0377,4.5062c-1.5071,0.0075 -3.0067,0.0151 -4.5062,0.0302c0,1.4995 0,2.9915 0,4.4836c1.4995,0.0151 3.0066,0.0302 4.5062,0.0452c0.0151,1.4996 0.0151,2.9991 0.0302,4.4987c1.4996,0 2.9916,0 4.4911,0c0.0075,-1.4996 0.015,-2.9991 0.0301,-4.5062c1.5071,-0.0151 3.0067,-0.0226 4.5062,-0.0377c0,-1.4921 0,-2.9916 0,-4.4836c-1.4995,-0.0151 -3.0066,-0.0151 -4.5062,-0.0302z"/>
</symbol>
<symbol id="icon-google1" viewBox="0 0 56.693 56.693">
  <path d="M53.634,25.852h-7.512v-7.511c0-0.572-0.465-1.039-1.037-1.039h-2.139c-0.576,0-1.041,0.467-1.041,1.039v7.511h-7.512
    c-0.572,0-1.039,0.467-1.039,1.041v2.139c0,0.574,0.467,1.039,1.039,1.039h7.512v7.514c0,0.574,0.465,1.039,1.041,1.039h2.139
    c0.572,0,1.037-0.465,1.037-1.039V30.07h7.512c0.572,0,1.039-0.465,1.039-1.039v-2.139C54.673,26.318,54.206,25.852,53.634,25.852z
    "/>
  <path d="M28.393,32.438c-1.58-1.119-3.017-2.761-3.041-3.265c0-0.918,0.082-1.356,2.141-2.961c2.66-2.084,4.125-4.823,4.125-7.719
    c0-2.625-0.802-4.957-2.166-6.595h1.059c0.219,0,0.434-0.068,0.608-0.196l2.955-2.141c0.367-0.264,0.521-0.732,0.381-1.161
    c-0.141-0.428-0.537-0.72-0.988-0.72H20.253c-1.445,0-2.915,0.255-4.356,0.751c-4.816,1.66-8.185,5.765-8.185,9.978
    c0,5.969,4.624,10.493,10.806,10.635c-0.121,0.474-0.183,0.939-0.183,1.396c0,0.92,0.233,1.791,0.713,2.633
    c-0.056,0-0.109,0-0.17,0c-5.892,0-11.21,2.891-13.229,7.193c-0.526,1.118-0.794,2.25-0.794,3.366c0,1.086,0.278,2.132,0.826,3.113
    c1.269,2.271,3.993,4.031,7.677,4.961c1.9,0.48,3.943,0.726,6.064,0.726c1.906,0,3.724-0.246,5.403-0.732
    c5.236-1.521,8.623-5.377,8.623-9.828C33.448,37.602,32.075,35.045,28.393,32.438z M11.701,42.215c0-3.106,3.947-5.832,8.446-5.832
    h0.121c0.979,0.013,1.934,0.156,2.834,0.433c0.309,0.213,0.606,0.416,0.893,0.61c2.084,1.421,3.461,2.357,3.844,3.861
    c0.091,0.379,0.136,0.758,0.136,1.125c0,3.869-2.886,5.83-8.578,5.83C15.081,48.242,11.701,45.596,11.701,42.215z M15.795,12.858
    c0.703-0.803,1.624-1.228,2.658-1.228l0.117,0.002c2.921,0.086,5.716,3.342,6.229,7.257c0.289,2.191-0.198,4.253-1.301,5.509
    c-0.705,0.805-1.613,1.229-2.688,1.229c0,0,0,0-0.002,0h-0.048c-2.86-0.088-5.716-3.467-6.227-7.377
    C14.247,16.064,14.707,14.099,15.795,12.858z"/>
</symbol>
<symbol id="icon-instagram1" viewBox="0 0 56 56">
  <path d="m43.304796,3.302141l-30.414,0c-5.283,0 -9.581,4.297 -9.581,9.58l0,10.12l0,20.295c0,5.283 4.298,9.58 9.581,9.58l30.415,0c5.283,0 9.58,-4.297 9.58,-9.58l0,-20.296l0,-10.12c-0.001,-5.283 -4.298,-9.579 -9.581,-9.579zm2.748,5.713l1.096,-0.004l0,1.091l0,7.312l-8.375,0.027l-0.029,-8.402l7.308,-0.024zm-25.031,13.986c1.588,-2.197 4.164,-3.638 7.076,-3.638s5.488,1.441 7.074,3.638c1.033,1.434 1.652,3.188 1.652,5.088c0,4.811 -3.918,8.725 -8.727,8.725c-4.812,0 -8.726,-3.914 -8.726,-8.725c0.001,-1.9 0.618,-3.654 1.651,-5.088zm27.033,20.295c0,2.621 -2.131,4.75 -4.75,4.75l-30.414,0c-2.62,0 -4.751,-2.129 -4.751,-4.75l0,-20.295l7.4,0c-0.639,1.572 -0.998,3.289 -0.998,5.088c0,7.473 6.08,13.557 13.556,13.557c7.475,0 13.555,-6.084 13.555,-13.557c0,-1.799 -0.361,-3.516 -1,-5.088l7.402,0l0,20.295z"/>
</symbol>
<symbol id="icon-linkedin1" viewBox="0 0 128 128">
  <path d="M16.452,47.708h20.914v62.915H16.452V47.708z"/>
  <path d="M27.048,17.377c-7.155,0-11.838,4.695-11.838,10.868c0,6.041,4.545,10.877,11.562,10.877h0.141
  	c7.293,0,11.832-4.836,11.832-10.877C38.607,22.072,34.206,17.377,27.048,17.377z"/>
  <path d="M88.706,46.229c-11.11,0-16.075,6.116-18.853,10.396v0.204h-0.136c0.039-0.064,0.097-0.138,0.136-0.204v-8.917H48.937
  	c0.279,5.904,0,62.915,0,62.915h20.917V75.486c0-1.885,0.142-3.754,0.693-5.101c1.516-3.761,4.954-7.65,10.734-7.65
  	c7.568,0,10.597,5.772,10.597,14.227v33.661h20.914V74.545C112.791,55.22,102.473,46.229,88.706,46.229z"/>
</symbol>
<symbol id="icon-pinterest1" viewBox="0 0 56.693 56.693">
  <path d="M30.374,4.622c-13.586,0-20.437,9.74-20.437,17.864c0,4.918,1.862,9.293,5.855,10.922c0.655,0.27,1.242,0.01,1.432-0.715  c0.132-0.5,0.445-1.766,0.584-2.295c0.191-0.717,0.117-0.967-0.412-1.594c-1.151-1.357-1.888-3.115-1.888-5.607  c0-7.226,5.407-13.695,14.079-13.695c7.679,0,11.898,4.692,11.898,10.957c0,8.246-3.649,15.205-9.065,15.205  c-2.992,0-5.23-2.473-4.514-5.508c0.859-3.623,2.524-7.531,2.524-10.148c0-2.34-1.257-4.292-3.856-4.292  c-3.058,0-5.515,3.164-5.515,7.401c0,2.699,0.912,4.525,0.912,4.525s-3.129,13.26-3.678,15.582  c-1.092,4.625-0.164,10.293-0.085,10.865c0.046,0.34,0.482,0.422,0.68,0.166c0.281-0.369,3.925-4.865,5.162-9.359  c0.351-1.271,2.011-7.859,2.011-7.859c0.994,1.896,3.898,3.562,6.986,3.562c9.191,0,15.428-8.379,15.428-19.595  C48.476,12.521,41.292,4.622,30.374,4.622z"/>
</symbol>
<symbol id="icon-skype1" viewBox="0 0 56.693 56.693">
  <path d="M51.497,34.785c0.354-1.624,0.539-3.303,0.539-5.029c0-12.938-10.488-23.427-23.428-23.427  c-1.365,0-2.703,0.119-4.008,0.342c-2.092-1.32-4.571-2.087-7.227-2.087c-7.505,0-13.588,6.084-13.588,13.59  c0,2.507,0.683,4.854,1.867,6.871c-0.312,1.521-0.474,3.098-0.474,4.711c0,12.941,10.488,23.43,23.429,23.43  c1.467,0,2.898-0.135,4.289-0.392c1.914,1.027,4.1,1.611,6.424,1.611c7.504,0,13.586-6.083,13.586-13.587  C52.907,38.65,52.399,36.604,51.497,34.785z M40.624,40.953c-1.082,1.533-2.684,2.749-4.76,3.611  c-2.055,0.854-4.518,1.288-7.32,1.288c-3.365,0-6.188-0.593-8.389-1.761c-1.575-0.849-2.872-1.999-3.858-3.424  c-0.994-1.433-1.498-2.857-1.498-4.232c0-0.857,0.328-1.602,0.976-2.211c0.642-0.604,1.464-0.91,2.446-0.91  c0.805,0,1.5,0.24,2.064,0.716c0.539,0.459,1,1.136,1.373,2.009c0.416,0.953,0.867,1.756,1.346,2.385  c0.461,0.61,1.121,1.121,1.965,1.521c0.85,0.401,1.996,0.606,3.402,0.606c1.938,0,3.527-0.413,4.721-1.229  c1.168-0.796,1.732-1.753,1.732-2.923c0-0.925-0.295-1.65-0.902-2.223c-0.641-0.597-1.48-1.058-2.502-1.379  c-1.064-0.331-2.51-0.691-4.297-1.066c-2.434-0.52-4.498-1.138-6.141-1.835c-1.682-0.716-3.036-1.708-4.026-2.946  c-1.005-1.261-1.516-2.837-1.516-4.695c0-1.77,0.535-3.367,1.591-4.741c1.047-1.367,2.578-2.431,4.548-3.157  c1.943-0.719,4.256-1.084,6.875-1.084c2.092,0,3.93,0.244,5.467,0.719c1.545,0.48,2.846,1.13,3.869,1.929  c1.029,0.806,1.797,1.665,2.279,2.561c0.484,0.902,0.73,1.802,0.73,2.671c0,0.838-0.322,1.599-0.961,2.264  c-0.643,0.666-1.451,1.004-2.406,1.004c-0.867,0-1.547-0.213-2.018-0.627c-0.438-0.391-0.893-0.995-1.398-1.864  c-0.584-1.108-1.291-1.984-2.102-2.601c-0.789-0.601-2.105-0.902-3.914-0.902c-1.678,0-3.045,0.336-4.059,1.003  c-0.977,0.639-1.453,1.374-1.453,2.245c0,0.535,0.154,0.979,0.471,1.363c0.332,0.409,0.803,0.763,1.395,1.062  c0.615,0.311,1.252,0.556,1.887,0.73c0.65,0.182,1.742,0.449,3.24,0.795c1.896,0.408,3.641,0.863,5.18,1.357  c1.562,0.5,2.908,1.113,4.01,1.83c1.121,0.73,2.01,1.667,2.641,2.789c0.633,1.125,0.953,2.513,0.953,4.127  C42.265,37.654,41.712,39.416,40.624,40.953z"/>
</symbol>
<symbol id="icon-tumblr1" viewBox="0 0 56 56">
  <path stroke="null" d="m29.881224,4.06393l0,11.042327l11.040387,0l0,8.526489l-11.040387,0l0,12.243487c0,2.770042 -0.033958,4.368031 0.258084,5.152957c0.292043,0.781045 1.023606,1.592168 1.819204,2.059824c1.059505,0.634538 2.262605,0.950837 3.622885,0.950837c2.417844,0 4.823074,-0.784926 7.214721,-2.355748l0,7.52908c-2.037509,0.96054 -3.88679,1.637769 -5.541054,2.021985c-1.656204,0.384216 -3.44339,0.582145 -5.36641,0.582145c-2.183045,0 -3.471527,-0.276519 -5.147135,-0.824706c-1.678519,-0.554979 -3.109626,-1.343786 -4.292352,-2.357689c-1.188547,-1.021665 -2.006461,-2.107366 -2.464415,-3.255163c-0.458925,-1.150707 -0.687902,-2.817584 -0.687902,-5.000629l0,-16.746381l-6.48704,0l0,-6.763559c1.875478,-0.608342 4.049791,-1.48156 5.384845,-2.618684c1.340875,-1.141005 2.413963,-2.505166 3.221204,-4.101214c0.813063,-1.592168 1.369982,-3.622885 1.675608,-6.084389l6.789755,0l0,-0.00097z"/>
</symbol>
<symbol id="icon-twitter1" viewBox="0 0 56.693 56.693">
  <path d="M52.837,15.065c-1.811,0.805-3.76,1.348-5.805,1.591c2.088-1.25,3.689-3.23,4.444-5.592c-1.953,1.159-4.115,2-6.418,2.454  c-1.843-1.964-4.47-3.192-7.377-3.192c-5.581,0-10.106,4.525-10.106,10.107c0,0.791,0.089,1.562,0.262,2.303  c-8.4-0.422-15.848-4.445-20.833-10.56c-0.87,1.492-1.368,3.228-1.368,5.082c0,3.506,1.784,6.6,4.496,8.412  c-1.656-0.053-3.215-0.508-4.578-1.265c-0.001,0.042-0.001,0.085-0.001,0.128c0,4.896,3.484,8.98,8.108,9.91  c-0.848,0.23-1.741,0.354-2.663,0.354c-0.652,0-1.285-0.063-1.902-0.182c1.287,4.015,5.019,6.938,9.441,7.019  c-3.459,2.711-7.816,4.327-12.552,4.327c-0.815,0-1.62-0.048-2.411-0.142c4.474,2.869,9.786,4.541,15.493,4.541  c18.591,0,28.756-15.4,28.756-28.756c0-0.438-0.009-0.875-0.028-1.309C49.769,18.873,51.483,17.092,52.837,15.065z"/>
</symbol>
<symbol id="icon-twitter2" viewBox="0 0 56 56">
  <path stroke="null" d="m40.547781,39.216619l-8.739382,0c-6.217901,0 -7.209052,-2.751217 -7.209052,-5.301766c0,-1.210573 0.075016,-3.20694 0.150032,-5.651529l14.601894,0c2.184845,0 6.354806,-0.895505 6.354806,-4.892928c0,-3.99461 -1.925102,-6.613611 -4.503782,-6.613611l-16.271003,0c-0.016879,-5.764991 -0.391959,-11.508415 -6.022859,-11.508415c-2.328314,0 -4.217783,0.956456 -5.01483,3.331655c-1.045538,3.120672 -0.768916,6.774896 -0.755788,10.024033c0.003751,0.617008 0.006564,1.237766 0.008439,1.85665c0.007502,2.128583 0.050636,4.269357 0.060013,6.408255c0.005626,2.302058 0.008439,4.604116 0.008439,6.904299c0,12.88965 11.715647,16.541999 13.962381,16.541999s11.048941,0.209108 12.639284,0.209108s6.1532,-0.421028 6.1532,-5.036397s-3.236947,-6.27135 -5.421792,-6.27135z"/>
</symbol>
<symbol id="icon-vimeo1" viewBox="0 0 56 56">
  <path stroke="null" d="m2.619184,18.37655l2.045481,2.682531c0,0 4.219186,-3.32467 5.625581,-1.662844c1.406395,1.662844 6.773493,21.733997 8.565578,25.438251c1.564131,3.248346 5.878976,7.543855 10.610041,4.474617c4.728012,-3.067204 20.452773,-16.491053 23.266581,-32.342003c2.812791,-15.848915 -18.922224,-12.530351 -21.222118,1.278171c5.75177,-3.454929 8.824062,1.40436 5.879994,6.903752c-2.939997,5.494304 -5.624563,9.078475 -7.029941,9.078475c-1.403342,0 -2.484089,-3.67576 -4.091979,-10.103251c-1.663861,-6.645269 -1.652667,-18.613876 -8.564561,-17.257345c-6.51908,1.279189 -15.084658,11.509646 -15.084658,11.509646z"/>
</symbol>
<symbol id="icon-youtube1" viewBox="0 0 51 51">
  <path d="m41.071769,24.49716l-31.129,0c-4.948,0 -8.959,4.015 -8.959,8.962l0,7.201c0,4.947 4.011,8.961 8.959,8.961l31.129,0c4.947,0 8.959,-4.014 8.959,-8.961l0,-7.201c0,-4.947 -4.012,-8.962 -8.959,-8.962zm-24.589,5.606l-2.894,0l0,14.38l-2.796,0l0,-14.38l-2.892,0l0,-2.446l8.582,0l0,2.446zm8.175,14.38l-2.48,0l0,-1.36c-0.461,0.503 -0.936,0.887 -1.432,1.146c-0.496,0.27 -0.975,0.396 -1.441,0.396c-0.576,0 -1.004,-0.183 -1.297,-0.555c-0.288,-0.371 -0.435,-0.921 -0.435,-1.664l0,-10.377l2.48,0l0,9.523c0,0.294 0.055,0.505 0.154,0.636c0.107,0.135 0.277,0.197 0.51,0.197c0.18,0 0.412,-0.086 0.691,-0.26c0.281,-0.176 0.537,-0.396 0.77,-0.668l0,-9.429l2.48,0l0,12.415zm9.004,-2.563c0,0.877 -0.195,1.551 -0.584,2.021c-0.387,0.47 -0.953,0.701 -1.686,0.701c-0.488,0 -0.922,-0.088 -1.299,-0.27c-0.379,-0.18 -0.736,-0.457 -1.061,-0.841l0,0.951l-2.51,0l0,-16.825l2.51,0l0,5.419c0.336,-0.375 0.691,-0.666 1.062,-0.861c0.379,-0.199 0.76,-0.295 1.146,-0.295c0.785,0 1.383,0.262 1.797,0.791c0.416,0.529 0.623,1.304 0.623,2.32l0,6.889l0.002,0zm8.603,-3.345l-4.746,0l0,2.339c0,0.652 0.08,1.106 0.242,1.359c0.166,0.254 0.445,0.378 0.842,0.378c0.412,0 0.697,-0.107 0.863,-0.321c0.16,-0.216 0.246,-0.686 0.246,-1.416l0,-0.565l2.553,0l0,0.637c0,1.272 -0.309,2.231 -0.936,2.878c-0.617,0.641 -1.547,0.959 -2.783,0.959c-1.113,0 -1.99,-0.339 -2.627,-1.021c-0.635,-0.678 -0.959,-1.619 -0.959,-2.815l0,-5.576c0,-1.073 0.354,-1.956 1.057,-2.633c0.701,-0.677 1.604,-1.015 2.715,-1.015c1.137,0 2.01,0.313 2.619,0.941c0.609,0.629 0.914,1.529 0.914,2.706l0,3.165z"/>
  <path d="m38.626769,33.93316c-0.396,0 -0.678,0.111 -0.85,0.343c-0.176,0.218 -0.258,0.591 -0.258,1.112l0,1.255l2.193,0l0,-1.255c0,-0.521 -0.088,-0.895 -0.262,-1.112c-0.167,-0.231 -0.446,-0.343 -0.823,-0.343z"/>
  <path d="m30.069769,33.89116c-0.176,0 -0.354,0.039 -0.525,0.12c-0.174,0.079 -0.344,0.21 -0.512,0.38l0,7.733c0.199,0.2 0.396,0.354 0.588,0.442c0.191,0.085 0.389,0.133 0.6,0.133c0.305,0 0.527,-0.088 0.67,-0.266c0.141,-0.176 0.213,-0.457 0.213,-0.854l0,-6.411c0,-0.422 -0.084,-0.738 -0.26,-0.955c-0.182,-0.214 -0.44,-0.322 -0.774,-0.322z"/>
  <polygon points="14.018769964575768,20.18515968322754 17.162770971655846,20.18515968322754 17.162770971655846,12.495160102844238 20.82377026975155,1.6471606492996216 17.627769216895103,1.6471606492996216 15.681769117712975,9.057159423828125 15.483769163489342,9.057159423828125 13.440770849585533,1.6471606492996216 10.273770079016685,1.6471606492996216 14.018769964575768,12.84115982055664 "/>
  <path d="m25.083769,20.53016c1.27,0 2.266,-0.333 2.992,-0.999c0.721,-0.669 1.082,-1.582 1.082,-2.752l0,-7.064c0,-1.041 -0.369,-1.898 -1.104,-2.559c-0.74,-0.659 -1.688,-0.991 -2.844,-0.991c-1.27,0 -2.281,0.314 -3.033,0.941c-0.75,0.627 -1.127,1.468 -1.127,2.531l0,7.088c0,1.163 0.367,2.083 1.1,2.773c0.733,0.687 1.713,1.032 2.934,1.032zm-1.158,-10.997c0,-0.297 0.107,-0.537 0.316,-0.725c0.217,-0.184 0.492,-0.273 0.834,-0.273c0.369,0 0.668,0.089 0.896,0.273c0.227,0.188 0.34,0.428 0.34,0.725l0,7.451c0,0.365 -0.111,0.655 -0.336,0.864c-0.223,0.21 -0.523,0.313 -0.9,0.313c-0.369,0 -0.654,-0.1 -0.854,-0.31c-0.197,-0.205 -0.297,-0.493 -0.297,-0.868l0,-7.45l0.001,0z"/>
  <path d="m33.374769,20.38516c0.525,0 1.064,-0.15 1.619,-0.438c0.561,-0.292 1.098,-0.719 1.609,-1.276l0,1.515l2.793,0l0,-13.675l-2.793,0l0,10.38c-0.26,0.297 -0.549,0.541 -0.859,0.735c-0.316,0.192 -0.576,0.288 -0.781,0.288c-0.262,0 -0.455,-0.072 -0.568,-0.221c-0.115,-0.143 -0.18,-0.377 -0.18,-0.698l0,-10.484l-2.789,0l0,11.429c0,0.815 0.164,1.424 0.488,1.828c0.33,0.41 0.812,0.617 1.461,0.617z"/>
</symbol>
<symbol id="icon-spotify" viewBox="0 0 56.69 56.69">
<path d="M28.3411,3.813c-13.5932,0-24.613,11.019-24.613,24.6122s11.0198,24.6129,24.613,24.6129  c13.5936,0,24.6133-11.0197,24.6133-24.6129S41.9346,3.813,28.3411,3.813z M38.3264,40.0396c-0.3979,0-0.6699-0.138-1.0418-0.3646  c-3.5675-2.158-8.015-3.2921-12.7356-3.2921c-2.6336,0-5.2842,0.3374-7.7634,0.8533c-0.403,0.0876-0.9103,0.2436-1.2132,0.2436  c-0.9347,0-1.558-0.7431-1.558-1.5468c0-1.0348,0.5966-1.549,1.3389-1.691c3.04-0.6927,6.0676-1.0883,9.2123-1.0883  c5.3857,0,10.1859,1.2357,14.3165,3.7111c0.6147,0.3591,0.975,0.7253,0.975,1.6359C39.8572,39.388,39.1359,40.0396,38.3264,40.0396z   M41.0084,33.5251c-0.5341,0-0.8704-0.2156-1.233-0.4266c-4.0038-2.376-9.5529-3.9546-15.6295-3.9546  c-3.1168,0-5.8066,0.436-8.0333,1.0294c-0.4798,0.1318-0.749,0.2738-1.1977,0.2738c-1.0585,0-1.9226-0.8626-1.9226-1.9296  c0-1.0465,0.5073-1.7671,1.5309-2.0557c2.767-0.7598,5.5921-1.3459,9.7045-1.3459c6.4427,0,12.6751,1.6046,17.5749,4.5368  c0.8215,0.4716,1.124,1.0689,1.124,1.9454C42.9268,32.6641,42.0781,33.5251,41.0084,33.5251z M44.062,25.9488  c-0.5011,0-0.7986-0.1218-1.2683-0.379c-4.4549-2.6711-11.3684-4.1423-18.0547-4.1423c-3.3375,0-6.7274,0.3394-9.8325,1.1818  c-0.3576,0.09-0.8094,0.2692-1.2621,0.2692c-1.3129,0-2.3201-1.0386-2.3201-2.3515c0-1.3378,0.8289-2.0886,1.7232-2.3528  c3.5085-1.0336,7.4247-1.5153,11.6823-1.5153c7.2273,0,14.8312,1.4866,20.3857,4.7489c0.7485,0.424,1.2683,1.0635,1.2683,2.2352  C46.3837,24.9846,45.3051,25.9488,44.062,25.9488z"/>
</symbol>
<symbol id="icon-itunes" viewBox="0 0 512 512">
<path d="M343.62,107.539l-154.633,23.79l0.04,173.344c0,0-26.939,1.538-32.179,3.164c-22.878,7.107-36.696,28.092-30.862,46.871  c5.833,18.777,29.11,28.24,51.988,21.134c18.829-5.849,37.016-21.768,37.982-37.455c0.017,0.009,0.025,0.011,0.025,0.011v-0.504  c0.04-0.903,0.045-1.806,0-2.709V188.683l108.186-14.349l-0.002,116.563l-17.129-0.769c-1.626-0.081-3.27-0.087-4.928-0.011  l-0.516-0.002l0.035,0.027c-4.208,0.229-8.484,0.968-12.704,2.28c-22.879,7.106-36.695,28.091-30.863,46.868  c5.834,18.779,29.111,28.24,51.989,21.134c19.034-5.912,32.87-21.442,33.565-37.309L343.62,107.539z"/>
<path d="M256,27.405c30.869,0,60.805,6.041,88.974,17.956c27.219,11.512,51.668,27.998,72.668,48.998  c21,21,37.485,45.449,48.998,72.667c11.915,28.169,17.956,58.104,17.956,88.974s-6.041,60.805-17.956,88.974  c-11.513,27.219-27.998,51.668-48.998,72.668s-45.449,37.485-72.668,48.998c-28.169,11.915-58.104,17.956-88.974,17.956  s-60.804-6.041-88.974-17.956c-27.218-11.513-51.667-27.998-72.667-48.998c-21-21-37.486-45.449-48.998-72.668  C33.446,316.805,27.405,286.869,27.405,256s6.041-60.804,17.956-88.974c11.512-27.218,27.998-51.667,48.998-72.667  c21-21,45.449-37.486,72.667-48.998C195.196,33.446,225.131,27.405,256,27.405 M256,7.405C118.705,7.405,7.405,118.705,7.405,256  c0,137.296,111.3,248.596,248.595,248.596c137.296,0,248.596-111.3,248.596-248.596C504.596,118.705,393.296,7.405,256,7.405  L256,7.405z"/>
</symbol>
<symbol id="icon-tiktok" viewBox="0 0 32 32">
<path d="M16.707 0.027c1.747-0.027 3.48-0.013 5.213-0.027 0.107 2.040 0.84 4.12 2.333 5.56 1.493 1.48 3.6 2.16 5.653 2.387v5.373c-1.92-0.067-3.853-0.467-5.6-1.293-0.76-0.347-1.467-0.787-2.16-1.24-0.013 3.893 0.013 7.787-0.027 11.667-0.107 1.867-0.72 3.72-1.8 5.253-1.747 2.56-4.773 4.227-7.88 4.28-1.907 0.107-3.813-0.413-5.44-1.373-2.693-1.587-4.587-4.493-4.867-7.613-0.027-0.667-0.040-1.333-0.013-1.987 0.24-2.533 1.493-4.96 3.44-6.613 2.213-1.92 5.307-2.84 8.2-2.293 0.027 1.973-0.053 3.947-0.053 5.92-1.32-0.427-2.867-0.307-4.027 0.493-0.84 0.547-1.48 1.387-1.813 2.333-0.28 0.68-0.2 1.427-0.187 2.147 0.32 2.187 2.427 4.027 4.667 3.827 1.493-0.013 2.92-0.88 3.693-2.147 0.253-0.44 0.533-0.893 0.547-1.413 0.133-2.387 0.080-4.76 0.093-7.147 0.013-5.373-0.013-10.733 0.027-16.093z"/>
</symbol>
<symbol id="icon-web1" viewBox="0 0 56 56">
	<path d="M 38.5 28 C 38.5 30.429688 38.367188 32.769531 38.140625 35 L 17.859375 35 C 17.632812 32.769531 17.402344 30.429688 17.402344 28 C 17.402344 25.570312 17.632812 23.230469 17.859375 21 L 38.140625 21 C 38.367188 23.230469 38.5 25.570312 38.5 28 Z M 55.113281 21 C 55.695312 23.242188 56 25.582031 56 28 C 56 30.417969 55.695312 32.757812 55.113281 35 L 41.648438 35 C 41.878906 32.746094 42 30.308594 42 28 C 42 25.59375 41.878906 23.253906 41.648438 21 Z M 53.964844 17.5 L 41.203125 17.5 C 40.109375 10.515625 37.941406 4.660156 35.152344 0.921875 C 43.726562 3.183594 50.683594 9.398438 53.964844 17.5 Z M 37.65625 17.5 L 18.34375 17.5 C 19.007812 13.519531 20.039062 9.996094 21.296875 7.148438 C 22.445312 4.566406 23.722656 2.691406 24.960938 1.511719 C 26.183594 0.347656 27.203125 0 28 0 C 28.796875 0 29.816406 0.347656 31.039062 1.511719 C 32.277344 2.691406 33.554688 4.566406 34.703125 7.148438 C 35.960938 9.996094 36.992188 13.519531 37.65625 17.5 Z M 2.035156 17.5 C 5.316406 9.398438 12.273438 3.183594 20.847656 0.921875 C 18.058594 4.660156 15.890625 10.515625 14.796875 17.5 Z M 14.351562 21 C 14.121094 23.253906 13.902344 25.59375 13.902344 28 C 13.902344 30.308594 14.121094 32.746094 14.351562 35 L 0.882812 35 C 0.304688 32.757812 0 30.417969 0 28 C 0 25.582031 0.304688 23.242188 0.882812 21 Z M 21.296875 48.847656 C 20.039062 46.003906 19.007812 42.480469 18.34375 38.5 L 37.65625 38.5 C 36.992188 42.480469 35.960938 46.003906 34.703125 48.847656 C 33.554688 51.4375 32.277344 53.308594 31.039062 54.492188 C 29.816406 55.648438 28.796875 56 27.902344 56 C 27.203125 56 26.183594 55.648438 24.960938 54.492188 C 23.722656 53.308594 22.445312 51.4375 21.296875 48.847656 Z M 20.847656 55.082031 C 12.273438 52.816406 5.316406 46.605469 2.035156 38.5 L 14.796875 38.5 C 15.890625 45.488281 18.058594 51.339844 20.847656 55.082031 Z M 35.152344 55.082031 C 37.941406 51.339844 40.109375 45.488281 41.203125 38.5 L 53.964844 38.5 C 50.683594 46.605469 43.726562 52.816406 35.152344 55.082031 Z M 35.152344 55.082031 "/>
</symbol>
</defs>
</svg>
